<mxfile host="app.diagrams.net" modified="2024-04-14T18:50:00.807Z" agent="Mozilla/5.0 (Windows NT 10.0; Win64; x64) AppleWebKit/537.36 (KHTML, like Gecko) Chrome/123.0.0.0 Safari/537.36 Edg/123.0.0.0" etag="4my62UX-A_GV64TD1oQz" version="24.2.5" type="github">
  <diagram name="Page-1" id="x6Ia6gtQabiSiKupUkXk">
    <mxGraphModel dx="1253" dy="721" grid="1" gridSize="10" guides="1" tooltips="1" connect="1" arrows="1" fold="1" page="1" pageScale="1" pageWidth="827" pageHeight="1169" math="0" shadow="0">
      <root>
        <mxCell id="0" />
        <mxCell id="1" parent="0" />
        <mxCell id="limSmYNVlZDHeNzWsxi4-3" value="" style="rounded=0;whiteSpace=wrap;html=1;fillColor=#EBEBEB;gradientColor=none;dashed=1;" vertex="1" parent="1">
          <mxGeometry x="40" y="40" width="760" height="680" as="geometry" />
        </mxCell>
        <mxCell id="limSmYNVlZDHeNzWsxi4-5" value="" style="rounded=0;whiteSpace=wrap;html=1;" vertex="1" parent="1">
          <mxGeometry x="120" y="120" width="280" height="280" as="geometry" />
        </mxCell>
        <mxCell id="limSmYNVlZDHeNzWsxi4-2" value="Virtual Memory&lt;div&gt;Address Space&lt;/div&gt;" style="rounded=0;whiteSpace=wrap;html=1;" vertex="1" parent="1">
          <mxGeometry x="580" y="120" width="160" height="280" as="geometry" />
        </mxCell>
        <mxCell id="limSmYNVlZDHeNzWsxi4-4" value="&lt;font style=&quot;font-size: 18px;&quot;&gt;&lt;b&gt;Host&lt;/b&gt;&lt;/font&gt;" style="text;html=1;align=center;verticalAlign=middle;whiteSpace=wrap;rounded=0;" vertex="1" parent="1">
          <mxGeometry x="40" y="40" width="80" height="40" as="geometry" />
        </mxCell>
        <mxCell id="limSmYNVlZDHeNzWsxi4-1" value="R0-R15" style="rounded=0;whiteSpace=wrap;html=1;fillColor=#EBEBEB;" vertex="1" parent="1">
          <mxGeometry x="270" y="130" width="120" height="20" as="geometry" />
        </mxCell>
        <mxCell id="limSmYNVlZDHeNzWsxi4-6" value="&lt;font style=&quot;font-size: 16px;&quot;&gt;&lt;b&gt;vCPU&lt;/b&gt;&lt;/font&gt;" style="text;html=1;align=center;verticalAlign=middle;whiteSpace=wrap;rounded=0;" vertex="1" parent="1">
          <mxGeometry x="120" y="120" width="60" height="30" as="geometry" />
        </mxCell>
        <mxCell id="limSmYNVlZDHeNzWsxi4-7" value="SYSREG" style="rounded=0;whiteSpace=wrap;html=1;fillColor=#EBEBEB;" vertex="1" parent="1">
          <mxGeometry x="270" y="150" width="120" height="20" as="geometry" />
        </mxCell>
        <mxCell id="limSmYNVlZDHeNzWsxi4-47" style="edgeStyle=orthogonalEdgeStyle;rounded=0;orthogonalLoop=1;jettySize=auto;html=1;entryX=0.5;entryY=1;entryDx=0;entryDy=0;" edge="1" parent="1" source="limSmYNVlZDHeNzWsxi4-8" target="limSmYNVlZDHeNzWsxi4-2">
          <mxGeometry relative="1" as="geometry" />
        </mxCell>
        <mxCell id="limSmYNVlZDHeNzWsxi4-48" style="edgeStyle=orthogonalEdgeStyle;rounded=0;orthogonalLoop=1;jettySize=auto;html=1;exitX=0.5;exitY=0;exitDx=0;exitDy=0;entryX=1;entryY=0.5;entryDx=0;entryDy=0;" edge="1" parent="1" source="limSmYNVlZDHeNzWsxi4-8" target="limSmYNVlZDHeNzWsxi4-1">
          <mxGeometry relative="1" as="geometry" />
        </mxCell>
        <mxCell id="limSmYNVlZDHeNzWsxi4-49" style="edgeStyle=orthogonalEdgeStyle;rounded=0;orthogonalLoop=1;jettySize=auto;html=1;exitX=0.5;exitY=0;exitDx=0;exitDy=0;entryX=1;entryY=0.5;entryDx=0;entryDy=0;jumpStyle=none;" edge="1" parent="1" source="limSmYNVlZDHeNzWsxi4-8" target="limSmYNVlZDHeNzWsxi4-7">
          <mxGeometry relative="1" as="geometry" />
        </mxCell>
        <mxCell id="limSmYNVlZDHeNzWsxi4-8" value="&lt;font style=&quot;font-size: 16px;&quot;&gt;&lt;b&gt;HPC&lt;/b&gt;&lt;/font&gt;" style="rounded=0;whiteSpace=wrap;html=1;" vertex="1" parent="1">
          <mxGeometry x="450" y="470" width="80" height="80" as="geometry" />
        </mxCell>
        <mxCell id="limSmYNVlZDHeNzWsxi4-12" style="edgeStyle=orthogonalEdgeStyle;rounded=0;orthogonalLoop=1;jettySize=auto;html=1;entryX=0.5;entryY=1;entryDx=0;entryDy=0;" edge="1" parent="1" source="limSmYNVlZDHeNzWsxi4-9" target="limSmYNVlZDHeNzWsxi4-8">
          <mxGeometry relative="1" as="geometry" />
        </mxCell>
        <mxCell id="limSmYNVlZDHeNzWsxi4-9" value="&lt;font style=&quot;font-size: 16px;&quot;&gt;&lt;b&gt;HIBSO&lt;/b&gt;&lt;/font&gt;" style="rounded=0;whiteSpace=wrap;html=1;" vertex="1" parent="1">
          <mxGeometry x="300" y="610" width="80" height="80" as="geometry" />
        </mxCell>
        <mxCell id="limSmYNVlZDHeNzWsxi4-15" value="HM&lt;div&gt;INSN&lt;/div&gt;" style="rounded=0;whiteSpace=wrap;html=1;fillColor=#EBEBEB;" vertex="1" parent="1">
          <mxGeometry x="230" y="330" width="60" height="60" as="geometry" />
        </mxCell>
        <mxCell id="limSmYNVlZDHeNzWsxi4-25" style="edgeStyle=orthogonalEdgeStyle;rounded=0;orthogonalLoop=1;jettySize=auto;html=1;exitX=1;exitY=0.5;exitDx=0;exitDy=0;entryX=0;entryY=0.5;entryDx=0;entryDy=0;" edge="1" parent="1" source="limSmYNVlZDHeNzWsxi4-16" target="limSmYNVlZDHeNzWsxi4-2">
          <mxGeometry relative="1" as="geometry" />
        </mxCell>
        <mxCell id="limSmYNVlZDHeNzWsxi4-27" style="edgeStyle=orthogonalEdgeStyle;rounded=0;orthogonalLoop=1;jettySize=auto;html=1;entryX=1;entryY=0.5;entryDx=0;entryDy=0;" edge="1" parent="1" source="limSmYNVlZDHeNzWsxi4-16" target="limSmYNVlZDHeNzWsxi4-26">
          <mxGeometry relative="1" as="geometry" />
        </mxCell>
        <mxCell id="limSmYNVlZDHeNzWsxi4-16" value="GM&lt;div&gt;INSN&lt;/div&gt;" style="rounded=0;whiteSpace=wrap;html=1;fillColor=#EBEBEB;" vertex="1" parent="1">
          <mxGeometry x="340" y="230" width="60" height="60" as="geometry" />
        </mxCell>
        <mxCell id="limSmYNVlZDHeNzWsxi4-19" value="&lt;font style=&quot;font-size: 16px;&quot;&gt;&lt;b&gt;HIBS&lt;/b&gt;&lt;/font&gt;" style="strokeWidth=2;html=1;shape=mxgraph.flowchart.stored_data;whiteSpace=wrap;" vertex="1" parent="1">
          <mxGeometry x="290" y="480" width="100" height="60" as="geometry" />
        </mxCell>
        <mxCell id="limSmYNVlZDHeNzWsxi4-22" style="edgeStyle=orthogonalEdgeStyle;rounded=0;orthogonalLoop=1;jettySize=auto;html=1;exitX=0.5;exitY=1;exitDx=0;exitDy=0;entryX=0;entryY=0.5;entryDx=0;entryDy=0;entryPerimeter=0;" edge="1" parent="1" source="limSmYNVlZDHeNzWsxi4-5" target="limSmYNVlZDHeNzWsxi4-19">
          <mxGeometry relative="1" as="geometry" />
        </mxCell>
        <mxCell id="limSmYNVlZDHeNzWsxi4-23" style="edgeStyle=orthogonalEdgeStyle;rounded=0;orthogonalLoop=1;jettySize=auto;html=1;exitX=0;exitY=0.5;exitDx=0;exitDy=0;entryX=0.93;entryY=0.5;entryDx=0;entryDy=0;entryPerimeter=0;" edge="1" parent="1" source="limSmYNVlZDHeNzWsxi4-8" target="limSmYNVlZDHeNzWsxi4-19">
          <mxGeometry relative="1" as="geometry" />
        </mxCell>
        <mxCell id="limSmYNVlZDHeNzWsxi4-24" style="edgeStyle=orthogonalEdgeStyle;rounded=0;orthogonalLoop=1;jettySize=auto;html=1;exitX=0.5;exitY=0;exitDx=0;exitDy=0;entryX=0.5;entryY=1;entryDx=0;entryDy=0;entryPerimeter=0;dashed=1;" edge="1" parent="1" source="limSmYNVlZDHeNzWsxi4-9" target="limSmYNVlZDHeNzWsxi4-19">
          <mxGeometry relative="1" as="geometry" />
        </mxCell>
        <mxCell id="limSmYNVlZDHeNzWsxi4-28" style="edgeStyle=orthogonalEdgeStyle;rounded=0;orthogonalLoop=1;jettySize=auto;html=1;exitX=0.5;exitY=1;exitDx=0;exitDy=0;entryX=0.5;entryY=0;entryDx=0;entryDy=0;" edge="1" parent="1" source="limSmYNVlZDHeNzWsxi4-26" target="limSmYNVlZDHeNzWsxi4-15">
          <mxGeometry relative="1" as="geometry" />
        </mxCell>
        <mxCell id="limSmYNVlZDHeNzWsxi4-26" value="Execution Loop" style="ellipse;whiteSpace=wrap;html=1;aspect=fixed;" vertex="1" parent="1">
          <mxGeometry x="220" y="220" width="80" height="80" as="geometry" />
        </mxCell>
        <mxCell id="limSmYNVlZDHeNzWsxi4-44" style="edgeStyle=orthogonalEdgeStyle;rounded=0;orthogonalLoop=1;jettySize=auto;html=1;exitX=0;exitY=0.5;exitDx=0;exitDy=0;entryX=0;entryY=0.5;entryDx=0;entryDy=0;" edge="1" parent="1" source="limSmYNVlZDHeNzWsxi4-30" target="limSmYNVlZDHeNzWsxi4-1">
          <mxGeometry relative="1" as="geometry" />
        </mxCell>
        <mxCell id="limSmYNVlZDHeNzWsxi4-45" style="edgeStyle=orthogonalEdgeStyle;rounded=0;orthogonalLoop=1;jettySize=auto;html=1;exitX=0;exitY=0.5;exitDx=0;exitDy=0;entryX=0;entryY=0.5;entryDx=0;entryDy=0;" edge="1" parent="1" source="limSmYNVlZDHeNzWsxi4-30" target="limSmYNVlZDHeNzWsxi4-7">
          <mxGeometry relative="1" as="geometry" />
        </mxCell>
        <mxCell id="limSmYNVlZDHeNzWsxi4-46" style="edgeStyle=orthogonalEdgeStyle;rounded=0;orthogonalLoop=1;jettySize=auto;html=1;exitX=1;exitY=0.5;exitDx=0;exitDy=0;entryX=0.5;entryY=0;entryDx=0;entryDy=0;" edge="1" parent="1" source="limSmYNVlZDHeNzWsxi4-30" target="limSmYNVlZDHeNzWsxi4-2">
          <mxGeometry relative="1" as="geometry" />
        </mxCell>
        <mxCell id="limSmYNVlZDHeNzWsxi4-30" value="&lt;font style=&quot;font-size: 16px;&quot;&gt;&lt;b&gt;NVIC&lt;/b&gt;&lt;/font&gt;" style="rounded=0;whiteSpace=wrap;html=1;" vertex="1" parent="1">
          <mxGeometry x="260" y="50" width="140" height="60" as="geometry" />
        </mxCell>
      </root>
    </mxGraphModel>
  </diagram>
</mxfile>
